<svg width="40" height="40" viewBox="0 0 40 40" fill="none" xmlns="http://www.w3.org/2000/svg">
<path d="M28.0818 4.11051C26.7472 2.21037 24.6969 0.833736 22.3758 0.29084C21.6988 0.135727 20.867 6.70774e-10 20.5382 6.60201e-10L19.8999 6.39687e-10L19.8999 8.76393L19.8999 17.5473L19.4357 16.4421C18.3718 13.8633 16.7857 12.1183 14.4066 10.9549C9.4355 8.53126 3.51662 10.5865 1.11813 15.5695C0.363764 17.1401 -0.177819 19.3117 0.0542929 19.874C0.151006 20.126 1.31155 20.1648 8.81652 20.1842L17.482 20.1842L16.2248 20.6689C11.5438 22.4527 8.91323 27.9787 10.422 32.8648C10.9636 34.6098 11.1763 34.9976 12.2595 36.316C13.8843 38.3131 16.3408 39.6316 18.8941 39.8837L20.0933 40L20.1127 31.1973C20.1127 22.3946 20.1127 22.3946 20.4802 23.4028C20.9251 24.6825 22.1243 26.4469 23.2268 27.4552C24.4261 28.5797 26.6892 29.6461 28.372 29.8982C33.8073 30.7513 38.9524 27.0092 39.8422 21.5608C39.9776 20.7853 40.0356 20.126 39.9776 20.0679C39.9389 20.0097 36.051 19.9709 31.3508 19.9709C26.6505 19.9709 22.8013 19.8934 22.8013 19.8158C22.8013 19.7382 23.3042 19.4862 23.9232 19.2535C26.4571 18.2647 28.6428 15.841 29.4939 13.049C29.9387 11.6141 29.9968 11.1876 29.9194 9.53951C29.784 7.29035 29.3198 5.85554 28.0818 4.11051Z" fill="url(#paint0_linear_306_2515)"/>
<defs>
<linearGradient id="paint0_linear_306_2515" x1="-22.3881" y1="44.6269" x2="48.6567" y2="16.7165" gradientUnits="userSpaceOnUse">
<stop offset="0.427083" stop-color="#FF8709"/>
<stop offset="0.791667" stop-color="#F7BDF8"/>
</linearGradient>
</defs>
</svg>
